<svg width="24" height="25" viewBox="0 0 24 25" fill="none" xmlns="http://www.w3.org/2000/svg">
<path d="M0.000133139 9.16308C-0.00317429 9.36341 0.0552096 9.56 0.167544 9.72679C0.279877 9.89358 0.440855 10.0227 0.629133 10.097L10.2301 13.8929L14.0711 23.3822C14.1453 23.5657 14.2735 23.723 14.4391 23.8339C14.6047 23.9447 14.8001 24.0039 15.0001 24.0038H15.0161C15.2187 24.0006 15.4155 23.9368 15.5805 23.8207C15.7455 23.7045 15.8709 23.5416 15.9401 23.3535L23.9401 1.61179C24.0056 1.43491 24.0186 1.24323 23.9775 1.05931C23.9365 0.87539 23.8431 0.706893 23.7084 0.573663C23.5737 0.440433 23.4033 0.348019 23.2172 0.307304C23.0311 0.266589 22.8372 0.279269 22.6581 0.34385L0.658133 8.24993C0.467699 8.31855 0.30283 8.44268 0.185336 8.60591C0.0678424 8.76914 0.00326033 8.96378 0.000133139 9.16407V9.16308Z" fill="#EB1135"/>
</svg>
